<svg width="393" height="852" viewBox="0 0 393 852" xmlns="http://www.w3.org/2000/svg">
  <!-- iPhone Frame -->
  <rect width="393" height="852" fill="#F5F5F5"/>

  <!-- Status Bar -->
  <rect width="393" height="44" fill="#FFFFFF"/>
  <text x="20" y="30" font-family="Arial" font-size="14" fill="#000">9:41</text>

  <!-- Header -->
  <rect y="44" width="393" height="60" fill="#FFFFFF"/>
  <text x="165" y="80" font-family="Arial" font-size="18" font-weight="bold" fill="#1C1C1E">メニュー</text>

  <!-- User Profile Card -->
  <rect x="16" y="120" width="361" height="140" rx="16" fill="url(#gradient2)"/>
  <defs>
    <linearGradient id="gradient2" x1="0%" y1="0%" x2="100%" y2="100%">
      <stop offset="0%" style="stop-color:#FF69B4;stop-opacity:1" />
      <stop offset="100%" style="stop-color:#FF1493;stop-opacity:1" />
    </linearGradient>
  </defs>
  <circle cx="50" cy="155" r="25" fill="#FFFFFF"/>
  <text x="43" y="165" font-size="24" fill="#FF69B4">👤</text>
  <text x="85" y="155" font-family="Arial" font-size="16" font-weight="bold" fill="#FFFFFF">さくら様</text>
  <text x="85" y="175" font-family="Arial" font-size="12" fill="#FFFFFF" opacity="0.9">会員ID: FUR-2024-0123</text>

  <rect x="30" y="195" width="103" height="50" rx="8" fill="#FFFFFF" opacity="0.2"/>
  <text x="50" y="215" font-family="Arial" font-size="10" fill="#FFFFFF" opacity="0.9">会員歴</text>
  <text x="48" y="235" font-family="Arial" font-size="16" font-weight="bold" fill="#FFFFFF">3ヶ月</text>

  <rect x="145" y="195" width="103" height="50" rx="8" fill="#FFFFFF" opacity="0.2"/>
  <text x="162" y="215" font-family="Arial" font-size="10" fill="#FFFFFF" opacity="0.9">来店回数</text>
  <text x="173" y="235" font-family="Arial" font-size="16" font-weight="bold" fill="#FFFFFF">52回</text>

  <rect x="260" y="195" width="103" height="50" rx="8" fill="#FFFFFF" opacity="0.2"/>
  <text x="283" y="215" font-family="Arial" font-size="10" fill="#FFFFFF" opacity="0.9">バッジ</text>
  <text x="285" y="235" font-family="Arial" font-size="16" font-weight="bold" fill="#FFFFFF">15個</text>

  <!-- Menu Sections -->
  <!-- Usage Guide Section -->
  <rect x="16" y="275" width="361" height="40" rx="12" fill="#FFFFFF" stroke="#E5E5E7" stroke-width="1"/>
  <text x="30" y="300" font-family="Arial" font-size="11" font-weight="bold" fill="#3A3A3C">利用ガイド</text>

  <rect x="16" y="315" width="361" height="180" rx="12" fill="#FFFFFF" stroke="#E5E5E7" stroke-width="1"/>
  <g transform="translate(30, 335)">
    <circle cx="15" cy="10" r="15" fill="#FFE4E1"/>
    <text x="10" y="16" font-size="16">📖</text>
    <text x="40" y="15" font-family="Arial" font-size="13" fill="#1C1C1E">はじめての方へ</text>
    <text x="320" y="15" font-family="Arial" font-size="16" fill="#3A3A3C">›</text>
    <line x1="0" y1="30" x2="333" y2="30" stroke="#E5E5E7" stroke-width="1"/>

    <circle cx="15" cy="55" r="15" fill="#FFE4E1"/>
    <text x="10" y="61" font-size="16">🎬</text>
    <text x="40" y="60" font-family="Arial" font-size="13" fill="#1C1C1E">アプリの使い方</text>
    <text x="320" y="60" font-family="Arial" font-size="16" fill="#3A3A3C">›</text>
    <line x1="0" y1="75" x2="333" y2="75" stroke="#E5E5E7" stroke-width="1"/>

    <circle cx="15" cy="100" r="15" fill="#FFE4E1"/>
    <text x="10" y="106" font-size="16">💡</text>
    <text x="40" y="105" font-family="Arial" font-size="13" fill="#1C1C1E">AIマシンの使い方</text>
    <text x="320" y="105" font-family="Arial" font-size="16" fill="#3A3A3C">›</text>
    <line x1="0" y1="120" x2="333" y2="120" stroke="#E5E5E7" stroke-width="1"/>

    <circle cx="15" cy="145" r="15" fill="#FFE4E1"/>
    <text x="10" y="151" font-size="16">📏</text>
    <text x="40" y="150" font-family="Arial" font-size="13" fill="#1C1C1E">測定機器の使い方</text>
    <text x="320" y="150" font-family="Arial" font-size="16" fill="#3A3A3C">›</text>
  </g>

  <!-- Content Section -->
  <rect x="16" y="510" width="361" height="40" rx="12" fill="#FFFFFF" stroke="#E5E5E7" stroke-width="1"/>
  <text x="30" y="535" font-family="Arial" font-size="11" font-weight="bold" fill="#3A3A3C">コンテンツ</text>

  <rect x="16" y="550" width="361" height="135" rx="12" fill="#FFFFFF" stroke="#E5E5E7" stroke-width="1"/>
  <g transform="translate(30, 570)">
    <circle cx="15" cy="10" r="15" fill="#FFE4E1"/>
    <text x="10" y="16" font-size="16">🎬</text>
    <text x="40" y="15" font-family="Arial" font-size="13" fill="#1C1C1E">動画トレーニング一覧</text>
    <text x="320" y="15" font-family="Arial" font-size="16" fill="#3A3A3C">›</text>
    <line x1="0" y1="30" x2="333" y2="30" stroke="#E5E5E7" stroke-width="1"/>

    <circle cx="15" cy="55" r="15" fill="#FFE4E1"/>
    <text x="10" y="61" font-size="16">🔔</text>
    <text x="40" y="60" font-family="Arial" font-size="13" fill="#1C1C1E">お知らせ一覧</text>
    <rect x="180" y="48" width="30" height="18" rx="9" fill="#FF0000"/>
    <text x="190" y="61" font-family="Arial" font-size="11" font-weight="bold" fill="#FFFFFF">3</text>
    <text x="320" y="60" font-family="Arial" font-size="16" fill="#3A3A3C">›</text>
    <line x1="0" y1="75" x2="333" y2="75" stroke="#E5E5E7" stroke-width="1"/>

    <circle cx="15" cy="100" r="15" fill="#FFE4E1"/>
    <text x="10" y="106" font-size="16">❓</text>
    <text x="40" y="105" font-family="Arial" font-size="13" fill="#1C1C1E">FAQ・よくある質問</text>
    <text x="320" y="105" font-family="Arial" font-size="16" fill="#3A3A3C">›</text>
  </g>

  <!-- Settings Section -->
  <rect x="16" y="700" width="361" height="40" rx="12" fill="#FFFFFF" stroke="#E5E5E7" stroke-width="1"/>
  <text x="30" y="725" font-family="Arial" font-size="11" font-weight="bold" fill="#3A3A3C">設定</text>

  <rect x="16" y="740" width="361" height="50" rx="12" fill="#FFFFFF" stroke="#E5E5E7" stroke-width="1"/>
  <text x="165" y="770" font-family="Arial" font-size="13" font-weight="bold" fill="#FF0000">🚪 ログアウト</text>

  <!-- Tab Bar -->
  <rect y="792" width="393" height="60" fill="#FFFFFF"/>
  <line x1="0" y1="792" x2="393" y2="792" stroke="#E5E5E7" stroke-width="1"/>
  <text x="35" y="820" font-family="Arial" font-size="10" fill="#3A3A3C">🏠</text>
  <text x="28" y="838" font-family="Arial" font-size="9" fill="#3A3A3C">ホーム</text>
  <text x="112" y="820" font-family="Arial" font-size="10" fill="#3A3A3C">📊</text>
  <text x="100" y="838" font-family="Arial" font-size="9" fill="#3A3A3C">レポート</text>
  <text x="189" y="820" font-family="Arial" font-size="10" fill="#3A3A3C">🎫</text>
  <text x="180" y="838" font-family="Arial" font-size="9" fill="#3A3A3C">入館証</text>
  <text x="262" y="820" font-family="Arial" font-size="10" fill="#3A3A3C">🏆</text>
  <text x="250" y="838" font-family="Arial" font-size="9" fill="#3A3A3C">リワード</text>
  <text x="338" y="820" font-family="Arial" font-size="10" fill="#FF69B4">⚙️</text>
  <text x="330" y="838" font-family="Arial" font-size="9" font-weight="bold" fill="#FF69B4">メニュー</text>

  <!-- Annotations -->
  <text x="10" y="870" font-family="Arial" font-size="10" fill="#666">画面名: メニュー画面 | 主要機能: プロフィール、利用ガイド、コンテンツ、設定、ログアウト</text>
</svg>
