<svg width="1400" height="1200" viewBox="0 0 1400 1200" xmlns="http://www.w3.org/2000/svg">
  <style>
    text {
      font-family: "Hiragino Sans", "Hiragino Kaku Gothic ProN", "Meiryo", "MS PGothic", sans-serif;
    }
  </style>
  <!-- Title -->
  <text x="700" y="40" font-size="24" font-weight="bold" fill="#1C1C1E" text-anchor="middle">MyFurdi アプリ画面遷移図（Phase1対応版）</text>
  <text x="700" y="65" font-size="12" fill="#3A3A3C" text-anchor="middle">FURDI会員向けフィットネスサポートアプリ - β版: 2025年1月中旬 / Phase1: 2025年3月上旬 / Phase2: 2025年3月上旬</text>

  <!-- Legend -->
  <g transform="translate(50, 90)">
    <text x="0" y="0" font-size="12" font-weight="bold" fill="#1C1C1E">凡例:</text>
    <line x1="50" y1="-5" x2="100" y2="-5" stroke="#2196F3" stroke-width="3" marker-end="url(#arrowBlue)"/>
    <text x="110" y="0" font-size="10" fill="#3A3A3C">認証フロー</text>
    <line x1="200" y1="-5" x2="250" y2="-5" stroke="#FF69B4" stroke-width="2" marker-end="url(#arrowPink)"/>
    <text x="260" y="0" font-size="10" fill="#3A3A3C">タブバー遷移</text>
    <line x1="350" y1="-5" x2="400" y2="-5" stroke="#4CAF50" stroke-width="2" stroke-dasharray="5,5" marker-end="url(#arrowGreen)"/>
    <text x="410" y="0" font-size="10" fill="#3A3A3C">アクション遷移</text>
    <circle cx="530" cy="-5" r="6" fill="#FFE4E1"/>
    <text x="545" y="0" font-size="10" fill="#3A3A3C">主要機能</text>
    <line x1="630" y1="-5" x2="680" y2="-5" stroke="#4CAF50" stroke-width="2" stroke-dasharray="8,4" marker-end="url(#arrowGreen)"/>
    <text x="690" y="0" font-size="10" fill="#4CAF50" font-weight="bold">Phase2予算内</text>
  </g>

  <!-- Arrow markers -->
  <defs>
    <marker id="arrowPink" markerWidth="10" markerHeight="10" refX="9" refY="3" orient="auto" markerUnits="strokeWidth">
      <path d="M0,0 L0,6 L9,3 z" fill="#FF69B4"/>
    </marker>
    <marker id="arrowGreen" markerWidth="10" markerHeight="10" refX="9" refY="3" orient="auto" markerUnits="strokeWidth">
      <path d="M0,0 L0,6 L9,3 z" fill="#4CAF50"/>
    </marker>
    <marker id="arrowBlue" markerWidth="10" markerHeight="10" refX="9" refY="3" orient="auto" markerUnits="strokeWidth">
      <path d="M0,0 L0,6 L9,3 z" fill="#2196F3"/>
    </marker>
  </defs>

  <!-- Login Screen (Top Center - Entry Point) -->
  <g id="login-screen" transform="translate(600, 130)">
    <rect x="0" y="0" width="200" height="150" rx="12" fill="#FFFFFF" stroke="#FF69B4" stroke-width="4"/>
    <rect x="0" y="0" width="200" height="40" rx="12" fill="#FF69B4"/>
    <text x="100" y="27" font-size="14" font-weight="bold" fill="#FFFFFF" text-anchor="middle">🔐 ログイン画面</text>

    <circle cx="15" cy="60" r="5" fill="#FFE4E1"/>
    <text x="28" y="65" font-size="10" fill="#1C1C1E">新Pixログイン</text>

    <circle cx="15" cy="85" r="5" fill="#FFE4E1"/>
    <text x="28" y="90" font-size="10" fill="#1C1C1E">メール/PW</text>

    <circle cx="15" cy="110" r="5" fill="#FFE4E1"/>
    <text x="28" y="115" font-size="10" fill="#1C1C1E">新規登録</text>

    <text x="100" y="135" font-size="9" fill="#3A3A3C" text-anchor="middle">アプリ起動時</text>
  </g>

  <!-- Home Screen (Center) -->
  <g id="home-screen" transform="translate(600, 320)">
    <rect x="0" y="0" width="200" height="280" rx="12" fill="#FFFFFF" stroke="#FF69B4" stroke-width="3"/>
    <rect x="0" y="0" width="200" height="50" rx="12" fill="#FF69B4"/>
    <text x="100" y="32" font-size="16" font-weight="bold" fill="#FFFFFF" text-anchor="middle">🏠 ホーム画面</text>

    <circle cx="20" cy="75" r="6" fill="#FFE4E1"/>
    <text x="35" y="80" font-size="11" fill="#1C1C1E">今日のチャレンジ</text>

    <circle cx="20" cy="105" r="6" fill="#FFE4E1"/>
    <text x="35" y="110" font-size="11" fill="#1C1C1E">来店サマリー</text>

    <circle cx="20" cy="135" r="6" fill="#FFE4E1"/>
    <text x="35" y="140" font-size="11" fill="#1C1C1E">混雑状況</text>

    <circle cx="20" cy="165" r="6" fill="#FFE4E1"/>
    <text x="35" y="170" font-size="11" fill="#1C1C1E">健康データ</text>

    <circle cx="20" cy="195" r="6" fill="#FFE4E1"/>
    <text x="35" y="200" font-size="11" fill="#1C1C1E">お知らせ通知</text>

    <line x1="10" y1="215" x2="190" y2="215" stroke="#E5E5E7" stroke-width="1"/>
    <text x="100" y="235" font-size="10" fill="#3A3A3C" text-anchor="middle">主要アクション:</text>
    <text x="100" y="250" font-size="9" fill="#3A3A3C" text-anchor="middle">• 体重記録</text>
    <text x="100" y="265" font-size="9" fill="#3A3A3C" text-anchor="middle">• 混雑確認→予約</text>
  </g>

  <!-- Report Screen (Top Center-Left) -->
  <g id="report-screen" transform="translate(200, 200)">
    <rect x="0" y="0" width="180" height="220" rx="12" fill="#FFFFFF" stroke="#E5E5E7" stroke-width="2"/>
    <rect x="0" y="0" width="180" height="40" rx="12" fill="#4CAF50"/>
    <rect x="130" y="8" width="40" height="18" rx="9" fill="#FFFFFF" opacity="0.3"/>
    <text x="150" y="22" font-size="9" font-weight="bold" fill="#FFFFFF">更新</text>
    <text x="90" y="27" font-size="14" font-weight="bold" fill="#FFFFFF" text-anchor="middle">📊 レポート画面</text>

    <circle cx="15" cy="60" r="5" fill="#FFE4E1"/>
    <text x="28" y="65" font-size="10" fill="#1C1C1E">運動記録タブ</text>

    <circle cx="15" cy="85" r="5" fill="#FFE4E1"/>
    <text x="28" y="90" font-size="10" fill="#1C1C1E">体組成タブ</text>

    <circle cx="15" cy="110" r="5" fill="#FFE4E1"/>
    <text x="28" y="115" font-size="10" fill="#1C1C1E">来館履歴タブ</text>

    <circle cx="15" cy="135" r="5" fill="#FFE4E1"/>
    <text x="28" y="140" font-size="10" fill="#1C1C1E">グラフ表示</text>

    <circle cx="15" cy="160" r="5" fill="#FFD700"/>
    <text x="28" y="165" font-size="10" fill="#FF9800" font-weight="bold">連携状態表示</text>

    <circle cx="15" cy="185" r="5" fill="#FFD700"/>
    <text x="28" y="190" font-size="10" fill="#FF9800" font-weight="bold">同期ボタン</text>

    <text x="90" y="210" font-size="9" fill="#3A3A3C" text-anchor="middle">(週/月/年)</text>
  </g>

  <!-- QR Code Screen (Top Center-Right) -->
  <g id="qr-screen" transform="translate(1020, 200)">
    <rect x="0" y="0" width="180" height="220" rx="12" fill="#FFFFFF" stroke="#E5E5E7" stroke-width="2"/>
    <rect x="0" y="0" width="180" height="40" rx="12" fill="#9C27B0"/>
    <rect x="130" y="8" width="40" height="18" rx="9" fill="#FFFFFF" opacity="0.3"/>
    <text x="150" y="22" font-size="9" font-weight="bold" fill="#FFFFFF">更新</text>
    <text x="90" y="27" font-size="14" font-weight="bold" fill="#FFFFFF" text-anchor="middle">🎫 入館証画面</text>

    <circle cx="15" cy="60" r="5" fill="#FFE4E1"/>
    <text x="28" y="65" font-size="10" fill="#1C1C1E">QRコード表示</text>

    <circle cx="15" cy="85" r="5" fill="#FFE4E1"/>
    <text x="28" y="90" font-size="10" fill="#1C1C1E">会員情報</text>

    <circle cx="15" cy="110" r="5" fill="#FFE4E1"/>
    <text x="28" y="115" font-size="10" fill="#1C1C1E">利用店舗選択</text>

    <circle cx="15" cy="135" r="5" fill="#FFD700"/>
    <text x="28" y="140" font-size="10" fill="#FF9800" font-weight="bold">自動更新(30秒)</text>

    <circle cx="15" cy="160" r="5" fill="#FFD700"/>
    <text x="28" y="165" font-size="10" fill="#FF9800" font-weight="bold">タイマー表示</text>

    <circle cx="15" cy="185" r="5" fill="#FFD700"/>
    <text x="28" y="190" font-size="10" fill="#FF9800" font-weight="bold">オフライン対応</text>

    <text x="90" y="210" font-size="9" fill="#3A3A3C" text-anchor="middle">入館・マシン利用</text>
  </g>

  <!-- Reward Screen (Bottom Left) -->
  <g id="reward-screen" transform="translate(200, 650)">
    <rect x="0" y="0" width="180" height="240" rx="12" fill="#FFFFFF" stroke="#E5E5E7" stroke-width="2"/>
    <rect x="0" y="0" width="180" height="40" rx="12" fill="#FF9800"/>
    <rect x="130" y="8" width="40" height="18" rx="9" fill="#FFFFFF" opacity="0.3"/>
    <text x="150" y="22" font-size="9" font-weight="bold" fill="#FFFFFF">更新</text>
    <text x="90" y="27" font-size="14" font-weight="bold" fill="#FFFFFF" text-anchor="middle">🏆 リワード画面</text>

    <circle cx="15" cy="60" r="5" fill="#FFE4E1"/>
    <text x="28" y="65" font-size="10" fill="#1C1C1E">今日タブ</text>

    <circle cx="15" cy="85" r="5" fill="#FFE4E1"/>
    <text x="28" y="90" font-size="10" fill="#1C1C1E">週間タブ</text>

    <circle cx="15" cy="110" r="5" fill="#FFD700"/>
    <text x="28" y="115" font-size="10" fill="#FF9800" font-weight="bold">バッジタブ</text>

    <circle cx="15" cy="135" r="5" fill="#FFE4E1"/>
    <text x="28" y="140" font-size="10" fill="#1C1C1E">実績タブ</text>

    <circle cx="15" cy="160" r="5" fill="#FFD700"/>
    <text x="28" y="165" font-size="10" fill="#FF9800" font-weight="bold">バッジグリッド</text>

    <circle cx="15" cy="185" r="5" fill="#FFD700"/>
    <text x="28" y="190" font-size="10" fill="#FF9800" font-weight="bold">カテゴリ分類</text>

    <circle cx="15" cy="210" r="5" fill="#FFE4E1"/>
    <text x="28" y="215" font-size="10" fill="#1C1C1E">達成ボーナス</text>

    <text x="90" y="230" font-size="9" fill="#3A3A3C" text-anchor="middle">ゲーミフィケーション</text>
  </g>

  <!-- Menu Screen (Bottom Right) -->
  <g id="menu-screen" transform="translate(1020, 650)">
    <rect x="0" y="0" width="180" height="240" rx="12" fill="#FFFFFF" stroke="#E5E5E7" stroke-width="2"/>
    <rect x="0" y="0" width="180" height="40" rx="12" fill="#607D8B"/>
    <rect x="130" y="8" width="40" height="18" rx="9" fill="#FFFFFF" opacity="0.3"/>
    <text x="150" y="22" font-size="9" font-weight="bold" fill="#FFFFFF">更新</text>
    <text x="90" y="27" font-size="14" font-weight="bold" fill="#FFFFFF" text-anchor="middle">⚙️ メニュー画面</text>

    <circle cx="15" cy="60" r="5" fill="#FFE4E1"/>
    <text x="28" y="65" font-size="10" fill="#1C1C1E">プロフィール</text>

    <circle cx="15" cy="85" r="5" fill="#FFE4E1"/>
    <text x="28" y="90" font-size="10" fill="#1C1C1E">利用ガイド</text>

    <circle cx="15" cy="110" r="5" fill="#FFD700"/>
    <text x="28" y="115" font-size="10" fill="#FF9800" font-weight="bold">連携サービス</text>

    <circle cx="15" cy="135" r="5" fill="#FFD700"/>
    <text x="28" y="140" font-size="10" fill="#FF9800" font-weight="bold">壁紙・テーマ</text>

    <circle cx="15" cy="160" r="5" fill="#FFE4E1"/>
    <text x="28" y="165" font-size="10" fill="#1C1C1E">動画トレーニング</text>

    <circle cx="15" cy="185" r="5" fill="#E8F5E9"/>
    <text x="28" y="190" font-size="10" fill="#4CAF50">IDENSIL結果</text>
    <rect x="92" y="178" width="52" height="14" rx="7" fill="#4CAF50"/>
    <text x="118" y="188" font-size="8" font-weight="bold" fill="#FFFFFF">Phase2</text>

    <circle cx="15" cy="210" r="5" fill="#FFE4E1"/>
    <text x="28" y="215" font-size="10" fill="#1C1C1E">ログアウト</text>

    <text x="90" y="230" font-size="9" fill="#3A3A3C" text-anchor="middle">情報・設定</text>
  </g>

  <!-- Integration Settings Screen (Middle Right) -->
  <g id="integration-screen" transform="translate(1020, 950)">
    <rect x="0" y="0" width="200" height="180" rx="12" fill="#FFFFFF" stroke="#FF69B4" stroke-width="3"/>
    <rect x="0" y="0" width="200" height="40" rx="12" fill="#2196F3"/>
    <text x="100" y="27" font-size="13" font-weight="bold" fill="#FFFFFF" text-anchor="middle">🔗 連携設定画面</text>

    <circle cx="15" cy="60" r="5" fill="#FFE4E1"/>
    <text x="28" y="65" font-size="10" fill="#1C1C1E">新Pix連携</text>

    <circle cx="15" cy="85" r="5" fill="#FFE4E1"/>
    <text x="28" y="90" font-size="10" fill="#1C1C1E">タニタ連携</text>

    <circle cx="15" cy="110" r="5" fill="#FFE4E1"/>
    <text x="28" y="115" font-size="10" fill="#1C1C1E">IDENSIL DNA連携</text>

    <circle cx="15" cy="135" r="5" fill="#FFE4E1"/>
    <text x="28" y="140" font-size="10" fill="#1C1C1E">自動同期設定</text>

    <text x="100" y="165" font-size="9" fill="#3A3A3C" text-anchor="middle">連携管理</text>
  </g>

  <!-- Wallpaper Selection Screen (Bottom Right) -->
  <g id="wallpaper-screen" transform="translate(750, 950)">
    <rect x="0" y="0" width="200" height="150" rx="12" fill="#FFFFFF" stroke="#FF69B4" stroke-width="3"/>
    <rect x="0" y="0" width="200" height="40" rx="12" fill="#9C27B0"/>
    <text x="100" y="27" font-size="13" font-weight="bold" fill="#FFFFFF" text-anchor="middle">🎨 壁紙選択画面</text>

    <circle cx="15" cy="60" r="5" fill="#FFE4E1"/>
    <text x="28" y="65" font-size="10" fill="#1C1C1E">プリセット5種</text>

    <circle cx="15" cy="85" r="5" fill="#FFE4E1"/>
    <text x="28" y="90" font-size="10" fill="#1C1C1E">プレビュー</text>

    <circle cx="15" cy="110" r="5" fill="#FFE4E1"/>
    <text x="28" y="115" font-size="10" fill="#1C1C1E">適用</text>

    <text x="100" y="135" font-size="9" fill="#3A3A3C" text-anchor="middle">個人化（簡易版）</text>
  </g>

  <!-- DNA Result Screen (Bottom Center - Phase2 予算内) -->
  <g id="dna-screen" transform="translate(450, 650)">
    <rect x="0" y="250" width="200" height="240" rx="12" fill="#E8F5E9" stroke="#4CAF50" stroke-width="3" stroke-dasharray="8,4"/>
    <rect x="0" y="250" width="200" height="40" rx="12" fill="#4CAF50"/>
    <rect x="125" y="258" width="58" height="18" rx="9" fill="#FFFFFF"/>
    <text x="154" y="272" font-size="9" font-weight="bold" fill="#4CAF50">Phase2</text>
    <text x="100" y="277" font-size="11" font-weight="bold" fill="#FFFFFF" text-anchor="middle">🧬 IDENSIL結果</text>

    <circle cx="15" cy="310" r="5" fill="#E8F5E9"/>
    <text x="28" y="315" font-size="10" fill="#1C1C1E">総合評価(32項目)</text>

    <circle cx="15" cy="335" r="5" fill="#E8F5E9"/>
    <text x="28" y="340" font-size="10" fill="#1C1C1E">筋肉タイプ</text>

    <circle cx="15" cy="360" r="5" fill="#E8F5E9"/>
    <text x="28" y="365" font-size="10" fill="#1C1C1E">代謝分析</text>

    <circle cx="15" cy="385" r="5" fill="#E8F5E9"/>
    <text x="28" y="390" font-size="10" fill="#1C1C1E">怪我リスク</text>

    <circle cx="15" cy="410" r="5" fill="#E8F5E9"/>
    <text x="28" y="415" font-size="10" fill="#1C1C1E">詳細データ</text>

    <circle cx="15" cy="435" r="5" fill="#E8F5E9"/>
    <text x="28" y="440" font-size="10" fill="#1C1C1E">PDFダウンロード</text>

    <circle cx="15" cy="460" r="5" fill="#E8F5E9"/>
    <text x="28" y="465" font-size="10" fill="#1C1C1E">AIアドバイス</text>

    <text x="100" y="480" font-size="9" fill="#4CAF50" font-weight="bold" text-anchor="middle">Phase2（予算内）</text>
  </g>

<!-- Login to Home transition (Clear downward arrow) -->
  <path d="M 700,280 L 700,320" fill="none" stroke="#2196F3" stroke-width="4" marker-end="url(#arrowBlue)"/>
  <rect x="650" y="285" width="100" height="28" rx="14" fill="#2196F3"/>
  <text x="700" y="304" font-size="12" fill="#FFFFFF" font-weight="bold" text-anchor="middle">✓ 認証成功</text>

  <!-- Tab Bar Navigation (Pink arrows - main navigation) -->
  <!-- Home to Report -->
  <path d="M 600,460 Q 500,490 380,350" fill="none" stroke="#FF69B4" stroke-width="2" marker-end="url(#arrowPink)"/>

  <!-- Home to QR -->
  <path d="M 800,460 Q 900,490 1020,350" fill="none" stroke="#FF69B4" stroke-width="2" marker-end="url(#arrowPink)"/>

  <!-- Home to Reward -->
  <path d="M 600,600 Q 500,620 380,750" fill="none" stroke="#FF69B4" stroke-width="2" marker-end="url(#arrowPink)"/>

  <!-- Home to Menu -->
  <path d="M 800,600 Q 900,620 1020,750" fill="none" stroke="#FF69B4" stroke-width="2" marker-end="url(#arrowPink)"/>

  <!-- Menu to Integration Settings -->
  <path d="M 1110,890 L 1120,950" fill="none" stroke="#4CAF50" stroke-width="2" stroke-dasharray="5,5" marker-end="url(#arrowGreen)"/>
  <text x="1130" y="920" font-size="10" fill="#4CAF50">連携管理</text>

  <!-- Menu to Wallpaper -->
  <path d="M 1050,890 Q 950,920 850,970" fill="none" stroke="#4CAF50" stroke-width="2" stroke-dasharray="5,5" marker-end="url(#arrowGreen)"/>
  <text x="920" y="920" font-size="10" fill="#4CAF50">壁紙選択</text>

  <!-- Menu to DNA Result (Phase2 予算内) -->
  <path d="M 1020,780 Q 750,850 650,900" fill="none" stroke="#4CAF50" stroke-width="2" stroke-dasharray="8,4" marker-end="url(#arrowGreen)"/>
  <rect x="795" y="826" width="88" height="20" rx="10" fill="#4CAF50"/>
  <text x="839" y="841" font-size="10" fill="#FFFFFF" font-weight="bold" text-anchor="middle">IDENSIL結果</text>

<!-- Action Transitions (Green dashed arrows) -->
  <!-- Home challenge to Reward -->
  <path d="M 650,600 L 350,650" fill="none" stroke="#4CAF50" stroke-width="2" stroke-dasharray="5,5" marker-end="url(#arrowGreen)"/>
  <text x="500" y="620" font-size="10" fill="#4CAF50">チャレンジ達成</text>

  <!-- Home to Report (health data) -->
  <path d="M 600,380 L 380,310" fill="none" stroke="#4CAF50" stroke-width="2" stroke-dasharray="5,5" marker-end="url(#arrowGreen)"/>
  <text x="470" y="340" font-size="10" fill="#4CAF50">健康データ詳細</text>

  <!-- Tab Bar representation -->
  <g transform="translate(550, 660)">
    <rect x="0" y="0" width="300" height="60" rx="8" fill="#FFFFFF" stroke="#FF69B4" stroke-width="2"/>
    <text x="150" y="20" font-size="12" font-weight="bold" fill="#FF69B4" text-anchor="middle">タブバーナビゲーション</text>
    <text x="30" y="40" font-size="10" fill="#1C1C1E">🏠</text>
    <text x="90" y="40" font-size="10" fill="#1C1C1E">📊</text>
    <text x="150" y="40" font-size="10" fill="#1C1C1E">🎫</text>
    <text x="210" y="40" font-size="10" fill="#1C1C1E">🏆</text>
    <text x="270" y="40" font-size="10" fill="#1C1C1E">⚙️</text>
    <text x="25" y="52" font-size="8" fill="#3A3A3C">Home</text>
    <text x="80" y="52" font-size="8" fill="#3A3A3C">Report</text>
    <text x="140" y="52" font-size="8" fill="#3A3A3C">QR</text>
    <text x="200" y="52" font-size="8" fill="#3A3A3C">Reward</text>
    <text x="260" y="52" font-size="8" fill="#3A3A3C">Menu</text>
  </g>

  <!-- Additional Notes -->
  <g transform="translate(50, 1150)">
    <text x="0" y="0" font-size="11" font-weight="bold" fill="#1C1C1E">Phase1 画面遷移の特徴:</text>
    <text x="0" y="20" font-size="10" fill="#3A3A3C">• ログイン画面から開始（認証必須）</text>
    <text x="280" y="20" font-size="10" fill="#3A3A3C">• タブバーによる5画面間のシームレス移動</text>
    <text x="630" y="20" font-size="10" fill="#3A3A3C">• メニューから連携設定・壁紙選択に遷移</text>
    <text x="1050" y="20" font-size="10" fill="#3A3A3C">• 全9画面対応</text>
  </g>

  <!-- Phase info -->
  <g transform="translate(50, 1180)">
    <rect x="0" y="0" width="180" height="18" rx="9" fill="#FF69B4"/>
    <text x="90" y="14" font-size="10" font-weight="bold" fill="#FFFFFF" text-anchor="middle">Phase1（予算内）: 7画面</text>
    <rect x="190" y="0" width="200" height="18" rx="9" fill="#4CAF50"/>
    <text x="290" y="14" font-size="10" font-weight="bold" fill="#FFFFFF" text-anchor="middle">Phase2（予算内）: 2画面</text>
  </g>
</svg>
